<?xml version="1.0" encoding="utf-8"?>
<!-- Generator: Adobe Illustrator 17.1.0, SVG Export Plug-In . SVG Version: 6.00 Build 0)  -->
<!DOCTYPE svg PUBLIC "-//W3C//DTD SVG 1.1//EN" "http://www.w3.org/Graphics/SVG/1.1/DTD/svg11.dtd">
<svg version="1.1" id="Layer_1" xmlns="http://www.w3.org/2000/svg" xmlns:xlink="http://www.w3.org/1999/xlink" x="0px" y="0px"
	 viewBox="0 0 159 70.1" enable-background="new 0 0 159 70.1" xml:space="preserve">
<g id="success_sign">
</g>
<g id="Layer_14">
</g>
<g id="impersonate">
</g>
<g id="attention">
</g>
<g id="link_back">
</g>
<g id="Layer_17">
</g>
<g id="okey">
</g>
<g id="Close">
</g>
<g id="download_pdf">
</g>
<g id="logout">
</g>
<g id="upload">
</g>
<g id="Layer_13">
</g>
<g id="more_sign">
</g>
<g id="Sprite">
	<g>
		<path fill-rule="evenodd" clip-rule="evenodd" fill="#C3ECBB" d="M124,0.1c19.3,0,35,15.7,35,35c0,19.3-15.7,35-35,35
			s-35-15.7-35-35C89,15.8,104.7,0.1,124,0.1z"/>
		<linearGradient id="SVGID_1_" gradientUnits="userSpaceOnUse" x1="119.7675" y1="28.352" x2="146.807" y2="55.3915">
			<stop  offset="0" style="stop-color:#A1DE97"/>
			<stop  offset="1" style="stop-color:#C3ECBB"/>
		</linearGradient>
		<path fill-rule="evenodd" clip-rule="evenodd" fill="url(#SVGID_1_)" d="M110,39.1l26.5,26.5l20.2-20.8L136,24.1l-18,17l-5-6
			L110,39.1z"/>
		<path fill-rule="evenodd" clip-rule="evenodd" fill="#FFFFFF" d="M138.6,28.7l-18,18c-0.8,0.8-2.9,0.3-3.4-0.2l-6.7-6.7
			c-0.8-0.8-0.8-2,0-2.8l1.4-1.4c0.8-0.8,2-0.8,2.8,0l4.2,4.2l15.4-15.4c0.8-0.8,2-0.8,2.8,0l1.4,1.4
			C139.4,26.7,139.4,28,138.6,28.7z"/>
	</g>
	<path fill-rule="evenodd" clip-rule="evenodd" fill="#4C84EA" d="M23,46.3H7c-1.1,0-2-0.9-2-2c0-0.1,0-0.2,0-0.3
		c0-4.7,3.3-7.5,7.2-8.4c-1.9-1-3.2-3-3.2-5.3c0-3.3,2.7-6,6-6c3.3,0,6,2.7,6,6c0,2.3-1.3,4.3-3.2,5.3c3.9,0.9,7.2,3.6,7.2,8.3
		c0,0.1,0,0.3,0,0.4C25,45.4,24.1,46.3,23,46.3z M20,30.3c0-2.8-2.2-5-5-5c-2.8,0-5,2.2-5,5c0,2.8,2.2,5,5,5
		C17.8,35.3,20,33.1,20,30.3z M24,44c0-5-4.4-7.6-8.9-7.7c0,0-0.1,0-0.1,0c-0.1,0-0.1,0-0.2,0C10.4,36.3,6,38.8,6,44
		c0,0.2,0,0.5,0,0.7c0,0.4,0.3,0.7,0.7,0.7h16.6c0.4,0,0.7-0.3,0.7-0.7C24,44.4,24,44.2,24,44z M5,37.5l-0.8,0.8L0,34.1v-0.6
		l4.2-4.2L5,30.1l-3.2,3.2H8v1H1.8L5,37.5z"/>
	<g>
		<g>
			<path fill-rule="evenodd" clip-rule="evenodd" fill="#888888" d="M77,37.3c-4.4,0-8,3.6-8,8c0,2,0.8,3.9,2,5.3l-5,5l0.7,0.7l5-5
				c1.4,1.2,3.3,2,5.3,2c4.4,0,8-3.6,8-8S81.4,37.3,77,37.3z M77,52.3c-3.9,0-7-3.1-7-7c0-3.9,3.1-7,7-7c3.9,0,7,3.1,7,7
				C84,49.2,80.8,52.3,77,52.3z"/>
		</g>
	</g>
	<g>
		<path fill-rule="evenodd" clip-rule="evenodd" fill="#FE7917" d="M10.2,48.1c0.6,1,7.1,10.4,7.6,11.1c0.5,0.9,0,2.2-1.3,2.2
			c-1,0-13.3,0-15.1,0c-1.1,0-1.8-1.2-1.3-2.2C0.8,58,7,49.3,7.8,48.1C8.3,47.1,9.7,47,10.2,48.1z"/>
		<g>
			<g>
				<path fill-rule="evenodd" clip-rule="evenodd" fill="#FFFFFF" d="M8,51.3v5h2v-5H8z M8,59.3h2v-2H8V59.3z"/>
			</g>
		</g>
	</g>
	<path fill-rule="evenodd" clip-rule="evenodd" fill="#4C84EA" d="M17.2,66.3H1.9l3.2,3.2l-0.8,0.8l-4.2-4.2v-0.6l4.2-4.2l0.8,0.8
		l-3.2,3.2h15.2V66.3z"/>
	<path fill-rule="evenodd" clip-rule="evenodd" fill="#86CAED" d="M61.5,49.5l-5.6,5.6H55l-2.6-2.6l1.5-1.5l1.6,1.6l4.6-4.6
		L61.5,49.5z"/>
	<path fill-rule="evenodd" clip-rule="evenodd" fill="#4C84EA" d="M68.3,26.5L51.4,43.4l-0.5,0l-5.2-5.2l0.8-0.8l4.7,4.7l16.4-16.4
		L68.3,26.5z"/>
	<g>
		<g>
			<polygon fill-rule="evenodd" clip-rule="evenodd" fill="#EA5A5A" points="89,18.6 80.3,9.8 88.7,1.4 87.9,0.7 79.5,9.1 70.8,0.3 
				70,1.1 78.8,9.8 70,18.6 70.7,19.3 79.5,10.6 88.3,19.3 			"/>
		</g>
	</g>
	<linearGradient id="SVGID_2_" gradientUnits="userSpaceOnUse" x1="56.995" y1="0.3125" x2="56.995" y2="25.3126">
		<stop  offset="0" style="stop-color:#E75350"/>
		<stop  offset="1" style="stop-color:#DF3E3D"/>
	</linearGradient>
	<path fill-rule="evenodd" clip-rule="evenodd" fill="url(#SVGID_2_)" d="M48,0.3h11.4L68,9.1v14.2c0,1.1-0.9,2-2,2H48
		c-1.1,0-2-0.9-2-2v-21C46,1.2,46.9,0.3,48,0.3z"/>
	<path fill-rule="evenodd" clip-rule="evenodd" fill="#F97A78" d="M68,9.1h-6.7c-1.1,0-2-0.9-2-2V0.3L68,9.1z"/>
	<path fill-rule="evenodd" clip-rule="evenodd" fill="#CF312F" d="M61,9.1l7,6v-6H61z"/>
	<path fill-rule="evenodd" clip-rule="evenodd" fill="#4C84EA" d="M41.1,11v8c0,1.1-0.9,2-2,2h-16c-1.1,0-2-0.9-2-2V2
		c0-1.1,0.9-2,2-2h16c1.1,0,2,0.9,2,2v8h4v1H41.1z M40.1,11H29.8l3.2,3.2L32.3,15l-4.2-4.2v-0.6L32.3,6l0.8,0.8L29.8,10h10.2V1.7
		c0-0.4-0.3-0.7-0.7-0.7H22.8c-0.4,0-0.7,0.3-0.7,0.7v17.6c0,0.4,0.3,0.7,0.7,0.7h16.6c0.4,0,0.7-0.3,0.7-0.7V11z"/>
	<path fill-rule="evenodd" clip-rule="evenodd" fill="#4C84EA" d="M19,20.3h-8v4h-1v-4H2c-1.1,0-2-0.9-2-2v-16c0-1.1,0.9-2,2-2h17
		c1.1,0,2,0.9,2,2v16C21,19.4,20.1,20.3,19,20.3z M20,2c0-0.4-0.3-0.7-0.7-0.7H1.7C1.3,1.3,1,1.6,1,2v16.6c0,0.4,0.3,0.7,0.7,0.7H10
		V9.1l-3.2,3.2L6,11.5l4.2-4.2h0.6l4.2,4.2l-0.8,0.8L11,9.1v10.2h8.3c0.4,0,0.7-0.3,0.7-0.7V2z"/>
	<path fill-rule="evenodd" clip-rule="evenodd" fill="#4C84EA" d="M35.5,46.3c-5.8,0-10.5-4.7-10.5-10.5c0-5.7,4.5-10.3,10.2-10.5
		c0.1,0,1.1,0,2,0L34,22.1l0.8-0.8l4.2,4.2v0.6l-4.2,4.2L34,29.5l3.2-3.2c-0.9,0-2,0-2.1,0c-5.1,0.2-9.2,4.4-9.2,9.5
		c0,5.3,4.3,9.5,9.5,9.5c5.3,0,9.5-4.3,9.5-9.5c0-3.1-1.5-5.8-3.7-7.5c-0.2-0.1-0.6-0.4-0.6-0.4l0.5-0.9c0,0,0.4,0.3,0.6,0.4
		c2.5,1.9,4.2,5,4.2,8.4C46,41.6,41.3,46.3,35.5,46.3z"/>
	<g>
		<g>
			<path fill-rule="evenodd" clip-rule="evenodd" fill="#4C84EA" d="M20.9,47.3c-1.6,0-2.9,1.3-2.9,2.9c0,1.6,1.3,2.9,2.9,2.9
				c1.6,0,2.9-1.3,2.9-2.9C23.8,48.6,22.5,47.3,20.9,47.3z M20.9,52.2c-1.1,0-1.9-0.9-1.9-1.9c0-1.1,0.9-1.9,1.9-1.9
				c1.1,0,1.9,0.9,1.9,1.9C22.8,51.3,22,52.2,20.9,52.2z M30.6,47.3c-1.6,0-2.9,1.3-2.9,2.9c0,1.6,1.3,2.9,2.9,2.9
				c1.6,0,2.9-1.3,2.9-2.9C33.5,48.6,32.2,47.3,30.6,47.3z M30.6,52.2c-1.1,0-1.9-0.9-1.9-1.9c0-1.1,0.9-1.9,1.9-1.9
				c1.1,0,1.9,0.9,1.9,1.9C32.5,51.3,31.6,52.2,30.6,52.2z M40.2,47.3c-1.6,0-2.9,1.3-2.9,2.9c0,1.6,1.3,2.9,2.9,2.9
				c1.6,0,2.9-1.3,2.9-2.9C43.1,48.6,41.8,47.3,40.2,47.3z M40.2,52.2c-1.1,0-1.9-0.9-1.9-1.9c0-1.1,0.9-1.9,1.9-1.9
				c1.1,0,1.9,0.9,1.9,1.9C42.2,51.3,41.3,52.2,40.2,52.2z"/>
		</g>
	</g>
	<g>
		<g>
			<path fill-rule="evenodd" clip-rule="evenodd" fill="#5B8FEC" d="M86.2,20.7L85.4,20c-0.9-0.9-2.2-0.9-3.1,0L70.9,31.5
				c-0.9,0.9-0.9,2.3,0,3.1l0.8,0.8c0.9,0.9,2.2,0.9,3.1,0l11.4-11.5C87,23,87,21.6,86.2,20.7z M73.7,34.9c-0.3,0.3-0.8,0.3-1.1,0
				l-1.3-1.3c-0.3-0.3-0.3-0.8,0-1.1l7.2-7.3l2.3,2.4L73.7,34.9z M85.6,22.9l-3.8,3.8l-2.3-2.4l3.8-3.8c0.3-0.3,0.8-0.3,1.1,0
				l1.3,1.3C85.9,22.1,85.9,22.6,85.6,22.9z M70.1,35.1c-0.6,0-1.1,0.5-1.1,1.1c0,0.6,0.5,1.1,1.1,1.1c0.6,0,1.1-0.5,1.1-1.1
				C71.2,35.6,70.7,35.1,70.1,35.1z M88.1,24.9l-4.6,4.6l0.9,0.9l4.6-4.6L88.1,24.9z"/>
		</g>
	</g>
	<path id="close_red_2_" fill-rule="evenodd" clip-rule="evenodd" fill="#EA5A5A" d="M27,62.4l-0.7,0.7l-3.8-3.8l-3.8,3.8L18,62.4
		l3.8-3.8L18,54.8l0.7-0.7l3.8,3.8l3.8-3.8l0.7,0.7l-3.8,3.8L27,62.4z"/>
	<path id="close_blue_2_" fill-rule="evenodd" clip-rule="evenodd" fill="#4C84EA" d="M36,62.4l-0.7,0.7l-3.8-3.8l-3.8,3.8L27,62.4
		l3.8-3.8L27,54.8l0.7-0.7l3.8,3.8l3.8-3.8l0.7,0.7l-3.8,3.8L36,62.4z"/>
	<path id="close_wite_2_" fill-rule="evenodd" clip-rule="evenodd" fill="#FFFFFF" d="M45.1,62.4l-0.7,0.7l-3.8-3.8l-3.8,3.8
		L36,62.4l3.8-3.8L36,54.8l0.7-0.7l3.8,3.8l3.8-3.8l0.7,0.7l-3.8,3.8L45.1,62.4z"/>
</g>
</svg>
